<svg width="66" height="39" viewBox="0 0 66 39" fill="none" xmlns="http://www.w3.org/2000/svg">
<circle cx="19.5" cy="19.5" r="19.5" fill="#F9CB3F"/>
<path d="M14.696 28C14.568 28 14.448 27.952 14.336 27.856C14.24 27.744 14.192 27.624 14.192 27.496C14.192 27.4 14.2 27.328 14.216 27.28L19.808 11.896C19.968 11.432 20.288 11.2 20.768 11.2H24.512C24.992 11.2 25.312 11.432 25.472 11.896L31.064 27.28C31.08 27.328 31.088 27.4 31.088 27.496C31.088 27.624 31.032 27.744 30.92 27.856C30.824 27.952 30.712 28 30.584 28H27.464C27.08 28 26.808 27.824 26.648 27.472L25.784 25.144H19.496L18.632 27.472C18.472 27.824 18.2 28 17.816 28H14.696ZM20.504 21.544H24.776L22.64 15.424L20.504 21.544ZM33.5054 28C33.3454 28 33.2014 27.944 33.0734 27.832C32.9614 27.704 32.9054 27.56 32.9054 27.4V11.824C32.9054 11.648 32.9614 11.504 33.0734 11.392C33.1854 11.264 33.3294 11.2 33.5054 11.2H40.9214C42.9534 11.2 44.4654 11.616 45.4574 12.448C46.4494 13.28 46.9454 14.464 46.9454 16C46.9454 16.768 46.7374 17.432 46.3214 17.992C45.9214 18.552 45.4734 18.96 44.9774 19.216C45.6334 19.504 46.1854 19.984 46.6334 20.656C47.0814 21.312 47.3054 22.056 47.3054 22.888C47.3054 24.504 46.7694 25.76 45.6974 26.656C44.6414 27.552 43.1214 28 41.1374 28H33.5054ZM40.4174 17.848C41.0094 17.848 41.4654 17.688 41.7854 17.368C42.1054 17.048 42.2654 16.632 42.2654 16.12C42.2654 15.624 42.1054 15.224 41.7854 14.92C41.4814 14.6 41.0254 14.44 40.4174 14.44H37.4174V17.848H40.4174ZM40.6334 24.76C41.2574 24.76 41.7374 24.584 42.0734 24.232C42.4254 23.864 42.6014 23.416 42.6014 22.888C42.6014 22.344 42.4254 21.896 42.0734 21.544C41.7214 21.176 41.2414 20.992 40.6334 20.992H37.4174V24.76H40.6334ZM56.8342 28.24C54.5462 28.24 52.7462 27.688 51.4342 26.584C50.1382 25.48 49.4502 23.864 49.3702 21.736C49.3542 21.304 49.3462 20.6 49.3462 19.624C49.3462 18.632 49.3542 17.912 49.3702 17.464C49.4502 15.384 50.1462 13.784 51.4582 12.664C52.7862 11.528 54.5782 10.96 56.8342 10.96C58.2582 10.96 59.5302 11.192 60.6502 11.656C61.7862 12.12 62.6822 12.792 63.3382 13.672C63.9942 14.552 64.3382 15.592 64.3702 16.792C64.3702 16.936 64.3142 17.056 64.2022 17.152C64.1062 17.248 63.9862 17.296 63.8422 17.296H60.4342C60.2102 17.296 60.0422 17.256 59.9302 17.176C59.8342 17.08 59.7462 16.912 59.6662 16.672C59.4422 15.888 59.0982 15.344 58.6342 15.04C58.1862 14.72 57.5862 14.56 56.8342 14.56C55.0262 14.56 54.0902 15.568 54.0262 17.584C54.0102 18.016 54.0022 18.68 54.0022 19.576C54.0022 20.472 54.0102 21.152 54.0262 21.616C54.0902 23.632 55.0262 24.64 56.8342 24.64C57.5702 24.64 58.1702 24.48 58.6342 24.16C59.1142 23.84 59.4582 23.296 59.6662 22.528C59.7302 22.288 59.8182 22.128 59.9302 22.048C60.0422 21.952 60.2102 21.904 60.4342 21.904H63.8422C63.9862 21.904 64.1062 21.952 64.2022 22.048C64.3142 22.144 64.3702 22.264 64.3702 22.408C64.3382 23.608 63.9942 24.648 63.3382 25.528C62.6822 26.408 61.7862 27.08 60.6502 27.544C59.5302 28.008 58.2582 28.24 56.8342 28.24Z" fill="black"/>
</svg>
