<svg width="473" height="343" viewBox="0 0 473 343" fill="none" xmlns="http://www.w3.org/2000/svg">
<path fill-rule="evenodd" clip-rule="evenodd" d="M275.081 19.0426C275.061 24.0237 271.003 28.0459 266.018 28.0261C261.032 28.0064 257.006 23.9523 257.025 18.9712C257.045 13.9901 261.103 9.96787 266.089 9.98771C271.075 10.0074 275.101 14.0615 275.081 19.0426Z" fill="#F4C9CE"/>
<path fill-rule="evenodd" clip-rule="evenodd" d="M35.049 114.009C35.0293 118.99 30.9713 123.012 25.9855 122.993C20.9997 122.973 16.9736 118.919 16.9934 113.938C17.0131 108.957 21.0711 104.935 26.0569 104.954C31.0427 104.974 35.0688 109.028 35.049 114.009Z" fill="#F4C9CE"/>
<path d="M13.2761 137.632C13.2761 137.632 30.801 98.0352 63.1272 102.384C95.4531 106.733 100.163 168.134 141.374 157.247C156.513 153.249 169.949 132.846 181.802 108.561M197.122 73.9023C210.294 42.0433 221.023 13.1522 229.547 12.485C236.877 11.9112 233.491 34.2053 240.228 35.1363C246.965 36.0674 273.759 -0.000109895 283.935 1.54751C294.111 3.09546 304.257 88.5141 309.346 89.1035C314.435 89.693 315.442 46.5895 321.91 46.9167C328.376 47.244 330.31 89.1871 330.31 89.1871L197.122 73.9023Z" stroke="#AB9BBF" stroke-width="1.29"/>
<path fill-rule="evenodd" clip-rule="evenodd" d="M207.758 189.297C199.904 214.533 160.871 231.894 135.247 223.052C130.708 221.488 126.589 219.098 123.141 215.785C121.308 214.028 119.667 212.008 118.249 209.713C112.553 200.48 120.69 189.166 125.356 172.432C130.451 154.147 120.988 138.984 134.089 130.359C136.662 128.666 139.33 127.372 142.068 126.446C150.285 123.652 159.086 124.148 167.519 126.963C193.057 135.484 215.242 165.248 207.758 189.297Z" fill="#F4C9CE"/>
<path d="M143.699 127.237C143.699 127.237 131.341 158.503 139.693 166.579C148.045 174.655 175.932 143.882 175.932 143.882C175.932 143.882 167.579 156.405 168.657 162.799C169.735 169.193 200.735 153.996 200.735 153.996M117.361 195.792C117.361 195.792 140.9 179.584 144.909 181.183C148.918 182.781 137.741 220.081 137.741 220.081L117.361 195.792Z" stroke="#FFFFFE" stroke-width="0.86"/>
<path fill-rule="evenodd" clip-rule="evenodd" d="M167.81 182.148C167.81 186.689 165.314 190.371 162.234 190.371C159.154 190.371 156.658 186.689 156.658 182.148C156.658 177.606 159.154 173.924 162.234 173.924C165.314 173.924 167.81 177.606 167.81 182.148Z" fill="#FFFFFE"/>
<mask id="mask0" mask-type="alpha" maskUnits="userSpaceOnUse" x="0" y="149" width="473" height="55">
<path d="M0.0194931 149.628H472.542V203.982H0.0194931V149.628Z" fill="white"/>
</mask>
<g mask="url(#mask0)">
<path fill-rule="evenodd" clip-rule="evenodd" d="M35.3333 186.478C35.2945 196.184 27.3537 204.021 17.5969 203.982C7.83969 203.944 -0.0383303 196.045 -0.000113311 186.339C0.0387077 176.634 7.97947 168.797 17.7366 168.835C27.4935 168.873 35.3718 176.773 35.3333 186.478Z" fill="#F9CB3F"/>
<path fill-rule="evenodd" clip-rule="evenodd" d="M457.775 178.404C449.934 178.374 443.579 172.003 443.612 164.203C443.641 156.433 450.022 150.113 457.83 150.113L457.888 150.113C465.729 150.144 472.083 156.515 472.054 164.315C472.022 172.084 465.644 178.404 457.833 178.404H457.775Z" fill="#FFFFFE"/>
<path fill-rule="evenodd" clip-rule="evenodd" d="M457.83 149.628C449.736 149.628 443.157 156.14 443.124 164.201C443.092 172.281 449.651 178.857 457.775 178.889C457.794 178.889 457.814 178.889 457.833 178.889C465.93 178.889 472.509 172.377 472.542 164.317C472.571 156.236 466.015 149.66 457.892 149.628C457.869 149.628 457.849 149.628 457.83 149.628ZM457.83 150.598L457.885 150.598C461.555 150.612 464.997 152.047 467.581 154.637C470.166 157.228 471.58 160.664 471.567 164.313C471.534 171.815 465.374 177.919 457.833 177.919H457.778C450.204 177.89 444.07 171.737 444.099 164.205C444.129 156.702 450.289 150.598 457.83 150.598Z" fill="#1F1F26"/>
</g>
<path fill-rule="evenodd" clip-rule="evenodd" d="M423.242 140.95C423.193 152.837 418.677 163.666 411.289 171.849C408.945 174.444 406.313 176.772 403.441 178.788C395.842 184.115 386.58 187.226 376.592 187.188C351.5 187.091 331.129 167.137 330.336 142.276C330.317 141.713 330.307 141.151 330.31 140.581C330.323 136.952 330.754 133.423 331.557 130.037C336.42 109.501 354.929 94.2566 376.961 94.3435C402.622 94.4474 423.342 115.313 423.242 140.95Z" fill="#F9CB3F"/>
<path fill-rule="evenodd" clip-rule="evenodd" d="M329.276 143.153C329.255 142.609 329.245 142.064 329.248 141.513C329.262 138.002 329.73 134.588 330.601 131.312C333.732 129.854 336.231 129.441 337.257 130.43C339.102 132.198 335.546 137.818 329.276 143.153Z" fill="#FFFFFE"/>
<path fill-rule="evenodd" clip-rule="evenodd" d="M354.595 135.954C353.01 140.256 356.421 145.778 362.219 148.289C368.015 150.799 374.003 149.347 375.591 145.046C377.176 140.745 373.765 135.223 367.967 132.712C362.168 130.202 356.183 131.653 354.595 135.954Z" fill="#FFFFFE"/>
<path fill-rule="evenodd" clip-rule="evenodd" d="M394.954 114.26C396.848 116.338 399.874 116.707 401.714 115.084C403.551 113.46 403.506 110.46 401.612 108.382C399.718 106.303 396.692 105.935 394.855 107.558C393.015 109.181 393.06 112.182 394.954 114.26Z" fill="#FFFFFE"/>
<path d="M420.587 154.812C412.519 142.803 399.412 125.805 391.465 128.604C379.413 132.85 384.274 175.53 380.519 175.981C376.762 176.432 371.295 166.077 367.557 167.163C363.397 168.371 359.76 177.806 357.924 183.474" stroke="#FFFFFE" stroke-width="0.86"/>
<path d="M339.868 111.073C346.336 117.44 353.142 123.097 355.699 121.655C359.485 119.52 357.488 106.225 357.488 106.225C357.488 106.225 368.715 126.086 376.095 123.883C381.079 122.394 375.531 102.609 372.97 94.3435" stroke="#FFFFFE" stroke-width="0.86" stroke-linejoin="round"/>
<path fill-rule="evenodd" clip-rule="evenodd" d="M134.885 93.2824L93.4466 77.9581L80.4193 73.143L48.8561 61.471L123.591 5.21286L134.885 93.2824Z" fill="#F9CB3F"/>
<path fill-rule="evenodd" clip-rule="evenodd" d="M358.986 214.245L456.167 214.63L414.455 289.582L358.986 214.245Z" fill="#F4C9CE"/>
<path d="M435.987 213.715C435.987 213.715 419.417 222.344 418.979 229.02C418.546 235.695 432.098 238.806 432.098 238.806C432.098 238.806 419.477 240.414 417.652 252.528C416.009 263.424 422.961 275.257 422.961 275.257" stroke="#FFFFFE" stroke-width="0.86"/>
<path fill-rule="evenodd" clip-rule="evenodd" d="M81.1628 241.833L64.2564 316.109L140.727 297.945L81.1628 241.833Z" fill="#F9CB3F"/>
<path d="M104.616 289.477C104.616 289.477 143.55 337.44 160.443 336.794C167.559 336.524 156.707 318.781 160.518 317.896C164.33 317.011 175.083 334.454 188.336 327.905C208.897 317.747 186.07 255 229.515 234.473C272.96 213.945 291.754 250.617 316.699 252.215C341.643 253.813 395.681 196.43 416.11 199.51C436.542 202.591 372.07 288.632 384.729 305.281C391.962 314.792 408.802 299.376 415.407 301.802C422.011 304.228 411.746 315.287 417.449 317.11C423.154 318.932 464.133 295.395 464.133 295.395" stroke="#AB9BBF" stroke-width="1.29"/>
<path fill-rule="evenodd" clip-rule="evenodd" d="M239.604 59.8584C239.604 59.8584 226.144 65.5442 223.084 75.0701C220.025 84.596 230.132 94.874 230.132 94.874L262.336 88.19L239.604 59.8584Z" fill="#0C0E0F"/>
<path fill-rule="evenodd" clip-rule="evenodd" d="M269.984 147.397C281.541 129.657 276.359 106.016 258.409 94.5945C240.46 83.1723 216.54 88.2938 204.983 106.034L269.984 147.397Z" fill="#C52D38"/>
<path fill-rule="evenodd" clip-rule="evenodd" d="M254.743 99.6489L261.251 75.6798C261.251 75.6798 269.906 73.4841 269.769 67.6346C269.632 61.7854 263.392 62.9747 263.392 62.9747C263.392 62.9747 262.412 54.7776 254.329 52.3339C246.246 49.8905 239.603 58.2776 238.722 64.9189C237.421 74.7278 240.476 80.2973 250.635 80.3086L246.41 93.3362" fill="#F9CB3F"/>
<path d="M243.749 65.1638L240.563 68.8776" stroke="#1F1F26" stroke-width="1.29"/>
<path fill-rule="evenodd" clip-rule="evenodd" d="M255.201 92.754C246.837 88.1575 258.625 60.8781 258.625 60.8781C248.47 63.9571 238.97 59.4611 238.97 59.4611C238.97 59.4611 244.73 46.4294 259.544 51.4663C274.357 56.5034 275.466 66.6692 275.466 66.6692C275.466 66.6692 290.807 74.0949 288.018 86.8765C285.229 99.6578 269.179 104.954 269.179 104.954C269.179 104.954 261.848 96.4065 255.201 92.754Z" fill="#0C0E0F"/>
<path fill-rule="evenodd" clip-rule="evenodd" d="M117.763 34.1808C120.428 35.2995 121.339 39.033 119.797 42.5196C118.255 46.0058 114.844 47.9254 112.179 46.8067C109.514 45.688 108.604 41.9545 110.145 38.4682C111.687 34.9817 115.098 33.0621 117.763 34.1808Z" fill="#DC5657"/>
<mask id="mask1" mask-type="alpha" maskUnits="userSpaceOnUse" x="230" y="280" width="119" height="63">
<path d="M230.028 280.634H348.232V342.086H230.028V280.634Z" fill="white"/>
</mask>
<g mask="url(#mask1)">
<path fill-rule="evenodd" clip-rule="evenodd" d="M347.119 282.544L348.232 307.455L334.921 340.701L333.808 315.791L347.119 282.544Z" fill="#00719F"/>
<path fill-rule="evenodd" clip-rule="evenodd" d="M323.246 342.105L231.14 305.545L230.028 280.634L322.133 317.194L323.246 342.105Z" fill="#F9CB3F"/>
</g>
<path fill-rule="evenodd" clip-rule="evenodd" d="M229.411 279.913L242.402 247.139L334.027 283.866L321.038 316.64L229.411 279.913Z" fill="#FFFFFE"/>
<path fill-rule="evenodd" clip-rule="evenodd" d="M242.603 246.078L229.411 279.914L320.836 317.17L334.027 283.334L242.603 246.078ZM243.141 247.357L332.778 283.884L320.298 315.891L230.663 279.363L243.141 247.357Z" fill="#1F1F26"/>
<path fill-rule="evenodd" clip-rule="evenodd" d="M349.427 33.862L355.995 21.9624L394.566 12.1099L387.995 24.0095L349.427 33.862Z" fill="#F9CB3F"/>
<path fill-rule="evenodd" clip-rule="evenodd" d="M410.777 68.3471L417.401 56.3046L407.562 16.8847L400.939 28.9272L410.777 68.3471Z" fill="#00719F"/>
<path fill-rule="evenodd" clip-rule="evenodd" d="M361.641 38.1958L399.788 28.5566L409.435 66.666L371.291 76.3052L361.641 38.1958Z" fill="#FFFFFE"/>
<path fill-rule="evenodd" clip-rule="evenodd" d="M399.466 28.5566L360.048 38.5169L370.018 77.8968L409.435 67.9365L399.466 28.5566ZM398.749 29.7533L408.235 67.2229L370.731 76.7001L361.245 39.2305L398.749 29.7533Z" fill="#1F1F26"/>
<path fill-rule="evenodd" clip-rule="evenodd" d="M358.986 215.837L391.911 215.967L382.117 247.139L358.986 215.837Z" fill="#F4C9CE"/>
<path fill-rule="evenodd" clip-rule="evenodd" d="M411.028 173.027C408.749 175.743 406.19 178.181 403.398 180.291C402.822 178.726 402.28 177.04 401.795 175.265C399.261 165.973 399.233 157.798 401.735 157.009C404.241 156.22 408.324 163.111 410.862 172.404C410.918 172.614 410.975 172.82 411.028 173.027Z" fill="#FFFFFE"/>
<path fill-rule="evenodd" clip-rule="evenodd" d="M5.31047 238.958L39.2789 158.008L73.2841 172.555L39.3158 253.505L5.31047 238.958Z" fill="#FFFFFE"/>
<path fill-rule="evenodd" clip-rule="evenodd" d="M39.8166 157.478L5.31047 239.59L40.3711 254.566L74.8773 172.454L39.8166 157.478ZM40.3341 158.766L73.5992 172.976L39.8533 253.278L6.58855 239.068L40.3341 158.766Z" fill="#1F1F26"/>
<path fill-rule="evenodd" clip-rule="evenodd" d="M75.2016 172.216C73.7284 175.556 64.7808 175.108 55.2164 171.216C45.652 167.325 39.0931 161.464 40.566 158.125C42.0392 154.786 50.9871 155.233 60.5516 159.125C70.1156 163.016 76.6748 168.878 75.2016 172.216Z" fill="#00719F"/>
<path fill-rule="evenodd" clip-rule="evenodd" d="M38.5596 254.45C37.0861 257.789 28.1385 257.341 18.5741 253.45C9.00976 249.559 2.45058 243.697 3.92412 240.358C5.39734 237.019 14.3449 237.467 23.9093 241.358C33.4737 245.25 40.0325 251.111 38.5596 254.45Z" fill="#F4C9CE"/>
<path d="M361.913 155.403C361.913 155.403 364.687 163.205 360.864 164.52C359.997 164.817 360.127 159.862 358.724 159.177M277.691 105.334C277.691 105.334 282.486 105.772 284.862 111.395C287.238 117.018 288.151 138.915 297.31 147.751C306.468 156.586 327.644 158.433 334.061 153.287C340.777 147.901 341.602 142.091 347.997 141.716C354.395 141.34 356.577 145.358 355.973 146.358C355.369 147.358 349.176 147.233 348.568 148.634L277.691 105.334ZM267.594 157.148C267.594 157.148 293.753 213.511 359.195 166.067L267.594 157.148ZM137.98 56.686C137.98 56.686 148.634 91.8025 156.813 95.6676C164.992 99.5327 202.464 106.591 202.464 106.591L137.98 56.686ZM154.263 45.9256C154.263 45.9256 168.418 73.7294 178.001 76.3905C187.584 79.0516 203.463 77.4369 218.07 83.4653L154.263 45.9256ZM131.488 43.6299C131.488 43.6299 115.171 42.4292 114.712 40.4896C114.254 38.5497 136.911 36.7688 136.911 36.7688L131.488 43.6299ZM140.955 41.9301C140.955 41.9301 136.012 45.1848 135.752 43.6469C135.491 42.109 137.716 35.5023 142.379 35.4541C147.043 35.4055 155.821 39.383 153.341 43.2488C150.861 47.1146 145.346 43.3508 145.346 43.3508L140.955 41.9301ZM125.791 43.0915C125.791 43.0915 125.742 47.9505 129.803 48.6349C133.864 49.3193 139.79 50.0777 140.197 48.2085C140.604 46.339 134.874 46.5836 134.284 44.3091L125.791 43.0915ZM136.862 49.3825C136.862 49.3825 141.135 51.6276 139.845 53.0183C139.042 53.8838 129.803 48.6349 129.803 48.6349L136.862 49.3825ZM353.904 139.233C353.904 139.233 366.18 137.236 367.986 140.893C368.681 142.299 356.006 145.516 356.006 145.516L353.904 139.233ZM361.864 148.007C361.864 148.007 363.024 159.461 356.018 159.162C354.125 159.08 358.844 151.08 356.051 150.368L361.864 148.007Z" stroke="#1F1F26" stroke-width="1.29"/>
<path fill-rule="evenodd" clip-rule="evenodd" d="M243.749 64.6373C243.744 65.5163 243.027 66.227 242.147 66.2249C241.267 66.2225 240.558 65.5082 240.563 64.6289C240.569 63.75 241.286 63.0393 242.166 63.0417C243.045 63.0438 243.754 63.7581 243.749 64.6373Z" fill="#1F1F26"/>
<path fill-rule="evenodd" clip-rule="evenodd" d="M248.529 64.6373C248.523 65.5166 247.806 66.2273 246.926 66.2249C246.046 66.2228 245.337 65.5082 245.342 64.6292C245.348 63.75 246.065 63.0393 246.945 63.0417C247.825 63.0441 248.534 63.7584 248.529 64.6373Z" fill="#1F1F26"/>
<path d="M102.413 21.0741C102.413 21.0741 122.317 15.1181 122.695 18.4042C123.192 22.7244 81.5128 39.3189 81.5745 42.1665C81.6362 45.0142 96.2498 43.1493 96.617 45.1455C96.9838 47.1413 61.0701 65.2518 61.0701 65.2518M130.961 48.6162C130.961 48.6162 106.972 50.718 106.376 56.0226C105.78 61.3276 121.041 63.8728 121.166 64.9454C121.291 66.0184 104.127 69.1366 104.657 73.6964C105.188 78.2561 135.416 86.9159 135.416 86.9159L130.961 48.6162Z" stroke="#DC5657" stroke-width="0.86"/>
<path fill-rule="evenodd" clip-rule="evenodd" d="M95.1108 79.4884L82.3119 74.3499C84.7272 66.2712 88.5244 60.8047 91.6299 61.5115C95.0015 62.2746 96.4073 70.0329 95.1108 79.4884Z" fill="#DC5657"/>
<path fill-rule="evenodd" clip-rule="evenodd" d="M209.078 157.649C175.775 162.642 128.941 199.321 131.25 221.938C133.56 244.556 187.683 282.855 187.683 282.855C187.683 282.855 178.538 295.378 180.8 305.034L221.856 266.435L184.718 229.989L223.523 204.771L257.808 217.015L246.537 295.347L294.598 316.64C294.598 316.64 291.357 302.157 282.083 296.694C282.083 296.694 316.924 205.695 304.115 184.14C291.306 162.586 241.702 152.759 209.078 157.649Z" fill="#0C0E0F"/>
<path d="M258.088 208.94L256.261 221.549M173.652 217.986L207.086 251.383L173.652 217.986Z" stroke="#FFFFFE" stroke-width="1.29"/>
<path d="M370.138 229.513C370.138 229.513 384.746 221.293 391.221 228.057C398.246 235.393 386.816 252.975 386.816 252.975" stroke="#FFFFFE" stroke-width="0.86"/>
</svg>
